<svg width="25px" height="25px" viewBox="0 0 100 100" version="1.1" xmlns="http://www.w3.org/2000/svg">
<g id="#000000ff">
<path fill="#000000" opacity="1.00" d=" M 41.39 1.50 C 53.94 -2.86 68.89 3.36 74.76 15.24 C 79.69 24.39 77.87 35.30 74.72 44.71 C 69.50 59.90 61.07 73.79 51.72 86.77 C 51.05 88.19 48.98 88.17 48.28 86.79 C 39.71 75.15 32.11 62.65 26.79 49.17 C 23.89 41.50 21.62 33.32 22.30 25.05 C 23.30 14.34 31.16 4.75 41.39 1.50 M 46.43 18.57 C 42.54 19.76 39.40 23.06 38.41 27.00 C 36.61 33.28 40.93 40.29 47.27 41.66 C 54.48 43.61 62.23 37.40 61.97 29.97 C 62.23 22.22 53.76 15.97 46.43 18.57 Z" />
<path fill="#000000" opacity="1.00" d=" M 7.46 75.50 C 14.68 71.07 23.17 69.43 31.42 68.12 C 35.75 75.49 40.19 82.82 45.43 89.57 C 47.56 92.60 52.50 92.56 54.61 89.54 C 59.80 82.78 64.21 75.46 68.52 68.12 C 76.78 69.45 85.32 71.04 92.56 75.48 C 95.69 77.45 98.89 80.93 97.81 84.93 C 96.57 89.55 91.94 92.03 87.90 93.85 C 76.72 98.44 64.48 99.46 52.53 100.00 L 47.58 100.00 C 35.34 99.47 22.77 98.44 11.39 93.51 C 7.60 91.71 3.33 89.25 2.20 84.89 C 1.29 80.93 4.31 77.44 7.46 75.50 Z" />
</g>
</svg>
