<svg width="100pt" height="100pt" viewBox="0 0 100 100" version="1.1" xmlns="http://www.w3.org/2000/svg">
<g id="#000000ff">
<path fill="#000000" opacity="1.00" d=" M 19.12 7.29 C 21.90 5.23 26.41 5.66 28.06 8.95 C 31.88 15.03 36.28 20.78 39.74 27.06 C 40.70 32.26 36.37 36.37 34.38 40.81 C 41.53 50.09 49.93 58.42 59.17 65.60 C 63.64 63.66 67.72 59.25 72.94 60.25 C 78.22 63.02 82.92 66.80 88.00 69.91 C 90.26 71.57 93.61 72.83 93.92 76.02 C 94.44 79.53 91.76 82.23 89.74 84.72 C 86.63 88.24 83.48 92.21 78.94 93.88 C 72.20 94.14 65.80 91.27 59.98 88.13 C 51.06 83.01 43.11 76.36 35.72 69.24 C 27.74 61.51 20.22 53.20 14.20 43.84 C 10.17 37.55 6.67 30.58 6.06 23.02 C 5.64 20.03 7.83 17.63 9.63 15.53 C 12.50 12.48 15.69 9.70 19.12 7.29 Z" />
<path fill="#000000" opacity="1.00" d=" M 50.01 9.97 C 60.24 10.07 70.41 14.06 77.74 21.25 C 85.51 28.65 89.95 39.27 90.02 49.99 C 88.70 50.00 87.37 50.00 86.05 50.00 C 85.92 40.10 81.76 30.28 74.41 23.60 C 67.87 17.43 58.95 14.09 50.00 13.95 C 50.00 12.62 50.00 11.30 50.01 9.97 Z" />
<path fill="#000000" opacity="1.00" d=" M 50.02 21.02 C 57.82 21.17 65.55 24.34 70.90 30.07 C 76.05 35.35 78.81 42.65 78.97 49.98 C 77.64 49.99 76.31 50.00 74.98 50.00 C 74.80 43.25 72.10 36.55 67.12 31.93 C 62.57 27.51 56.30 25.20 50.00 25.02 C 50.00 23.69 50.01 22.36 50.02 21.02 Z" />
<path fill="#000000" opacity="1.00" d=" M 50.02 31.89 C 59.69 31.92 68.06 40.32 68.10 49.97 C 66.77 49.99 65.44 50.00 64.10 50.00 C 63.96 42.46 57.54 36.03 50.00 35.90 C 50.00 34.56 50.01 33.23 50.02 31.89 Z" />
</g>
</svg>
