<svg xmlns="http://www.w3.org/2000/svg" xmlns:xlink="http://www.w3.org/1999/xlink" width="50" zoomAndPan="magnify" viewBox="0 0 30 30.000001" height="50" preserveAspectRatio="xMidYMid meet" version="1.0">
<defs>
<clipPath id="id1">
<path d="M 3 4.789062 L 12 4.789062 L 12 18 L 3 18 Z M 3 4.789062 " clip-rule="nonzero"/>
</clipPath>
<clipPath id="id2">
<path d="M 0.484375 14 L 15 14 L 15 19.304688 L 0.484375 19.304688 Z M 0.484375 14 " clip-rule="nonzero"/>
</clipPath>
<clipPath id="id3">
<path d="M 11 9.507812 L 20 9.507812 L 20 23 L 11 23 Z M 11 9.507812 " clip-rule="nonzero"/>
</clipPath>
<clipPath id="id4">
<path d="M 8 19 L 22.367188 19 L 22.367188 24.023438 L 8 24.023438 Z M 8 19 " clip-rule="nonzero"/>
</clipPath><clipPath id="id5">
<path d="M 18 4.863281 L 27 4.863281 L 27 18 L 18 18 Z M 18 4.863281 " clip-rule="nonzero"/>
</clipPath>
<clipPath id="id6">
<path d="M 15.21875 14 L 29.515625 14 L 29.515625 19.378906 L 15.21875 19.378906 Z M 15.21875 14 " clip-rule="nonzero"/>
</clipPath>
</defs>
<g clip-path="url(#id1)">
<path fill="#000000" d="M 6.492188 5.007812 C 8.3125 4.375 10.484375 5.277344 11.335938 7.003906 C 12.050781 8.332031 11.789062 9.914062 11.332031 11.28125 C 10.574219 13.484375 9.347656 15.5 7.992188 17.386719 C 7.894531 17.59375 7.59375 17.589844 7.492188 17.390625 C 6.25 15.699219 5.144531 13.882812 4.371094 11.929688 C 3.953125 10.816406 3.621094 9.628906 3.722656 8.425781 C 3.867188 6.871094 5.007812 5.480469 6.492188 5.007812 M 7.222656 7.484375 C 6.660156 7.660156 6.203125 8.136719 6.058594 8.710938 C 5.796875 9.621094 6.425781 10.640625 7.34375 10.835938 C 8.390625 11.121094 9.515625 10.21875 9.480469 9.140625 C 9.515625 8.015625 8.289062 7.109375 7.222656 7.484375 Z M 7.222656 7.484375 " fill-opacity="1" fill-rule="nonzero"/>
</g>
<g clip-path="url(#id2)">
<path fill="#000000" d="M 1.566406 15.75 C 2.613281 15.105469 3.847656 14.867188 5.042969 14.679688 C 5.671875 15.75 6.316406 16.8125 7.078125 17.792969 C 7.386719 18.230469 8.105469 18.226562 8.410156 17.789062 C 9.164062 16.808594 9.804688 15.746094 10.429688 14.679688 C 11.628906 14.871094 12.867188 15.101562 13.921875 15.746094 C 14.375 16.03125 14.839844 16.539062 14.683594 17.117188 C 14.503906 17.789062 13.828125 18.148438 13.242188 18.414062 C 11.621094 19.078125 9.84375 19.226562 8.109375 19.304688 L 7.390625 19.304688 C 5.613281 19.230469 3.789062 19.078125 2.136719 18.363281 C 1.585938 18.101562 0.96875 17.746094 0.804688 17.113281 C 0.671875 16.539062 1.109375 16.03125 1.566406 15.75 Z M 1.566406 15.75 " fill-opacity="1" fill-rule="nonzero"/></g>
<g clip-path="url(#id3)">
<path fill="#000000" d="M 13.859375 9.726562 C 15.679688 9.09375 17.851562 9.996094 18.703125 11.71875 C 19.417969 13.046875 19.15625 14.632812 18.695312 16 C 17.941406 18.203125 16.714844 20.21875 15.359375 22.105469 C 15.261719 22.308594 14.960938 22.308594 14.859375 22.105469 C 13.613281 20.417969 12.511719 18.601562 11.738281 16.644531 C 11.320312 15.53125 10.988281 14.34375 11.089844 13.144531 C 11.234375 11.589844 12.375 10.199219 13.859375 9.726562 M 14.589844 12.203125 C 14.027344 12.375 13.570312 12.855469 13.425781 13.425781 C 13.164062 14.339844 13.792969 15.355469 14.710938 15.554688 C 15.757812 15.839844 16.882812 14.9375 16.847656 13.859375 C 16.882812 12.734375 15.65625 11.828125 14.589844 12.203125 Z M 14.589844 12.203125 " fill-opacity="1" fill-rule="nonzero"/>
</g>
<g clip-path="url(#id4)">
<path fill="#000000" d="M 8.933594 20.46875 C 9.980469 19.824219 11.214844 19.585938 12.410156 19.394531 C 13.039062 20.464844 13.683594 21.53125 14.445312 22.511719 C 14.753906 22.949219 15.472656 22.945312 15.777344 22.503906 C 16.53125 21.523438 17.171875 20.460938 17.796875 19.394531 C 18.996094 19.589844 20.234375 19.820312 21.285156 20.464844 C 21.742188 20.75 22.207031 21.257812 22.050781 21.835938 C 21.867188 22.507812 21.195312 22.867188 20.609375 23.132812 C 18.988281 23.796875 17.210938 23.945312 15.476562 24.023438 L 14.757812 24.023438 C 12.980469 23.945312 11.15625 23.796875 9.503906 23.082031 C 8.953125 22.820312 8.335938 22.464844 8.171875 21.832031 C 8.039062 21.257812 8.476562 20.75 8.933594 20.46875 Z M 8.933594 20.46875 " fill-opacity="1" fill-rule="nonzero"/>
</g>
<g clip-path="url(#id5)"><path fill="#000000" d="M 21.226562 5.082031 C 23.046875 4.449219 25.21875 5.351562 26.070312 7.074219 C 26.785156 8.402344 26.519531 9.988281 26.0625 11.351562 C 25.304688 13.558594 24.082031 15.574219 22.726562 17.457031 C 22.628906 17.664062 22.328125 17.660156 22.226562 17.460938 C 20.980469 15.773438 19.878906 13.957031 19.105469 12 C 18.6875 10.886719 18.355469 9.699219 18.453125 8.5 C 18.601562 6.945312 19.742188 5.550781 21.226562 5.082031 M 21.957031 7.558594 C 21.394531 7.730469 20.9375 8.210938 20.792969 8.78125 C 20.53125 9.695312 21.160156 10.710938 22.078125 10.910156 C 23.125 11.195312 24.25 10.292969 24.214844 9.214844 C 24.25 8.089844 23.023438 7.179688 21.957031 7.558594 Z M 21.957031 7.558594 " fill-opacity="1" fill-rule="nonzero"/></g><g clip-path="url(#id6)"><path fill="#000000" d="M 16.300781 15.824219 C 17.347656 15.179688 18.582031 14.941406 19.777344 14.75 C 20.40625 15.820312 21.050781 16.886719 21.8125 17.863281 C 22.121094 18.304688 22.839844 18.300781 23.144531 17.859375 C 23.898438 16.878906 24.539062 15.816406 25.164062 14.75 C 26.363281 14.945312 27.601562 15.175781 28.652344 15.820312 C 29.109375 16.105469 29.574219 16.609375 29.414062 17.191406 C 29.234375 17.863281 28.5625 18.222656 27.976562 18.484375 C 26.355469 19.152344 24.578125 19.300781 22.84375 19.378906 L 22.125 19.378906 C 20.347656 19.300781 18.523438 19.152344 16.871094 18.4375 C 16.320312 18.175781 15.699219 17.820312 15.535156 17.1875 C 15.40625 16.609375 15.84375 16.105469 16.300781 15.824219 Z M 16.300781 15.824219 " fill-opacity="1" fill-rule="nonzero"/>
</g>
</svg>
